<svg width="24" height="27" viewBox="0 0 24 27" fill="none" xmlns="http://www.w3.org/2000/svg">
<g filter="url(#filter0_d_4_8)">
<path d="M17 6.66667H18.6667C18.8877 6.66667 19.0996 6.75446 19.2559 6.91075C19.4122 7.06703 19.5 7.27899 19.5 7.5V17.5C19.5 17.721 19.4122 17.933 19.2559 18.0893C19.0996 18.2455 18.8877 18.3333 18.6667 18.3333H5.33333C5.11232 18.3333 4.90036 18.2455 4.74408 18.0893C4.5878 17.933 4.5 17.721 4.5 17.5V7.5C4.5 7.27899 4.5878 7.06703 4.74408 6.91075C4.90036 6.75446 5.11232 6.66667 5.33333 6.66667H7V5.83333C7 4.50725 7.52678 3.23548 8.46447 2.2978C9.40215 1.36012 10.6739 0.833334 12 0.833334C13.3261 0.833334 14.5979 1.36012 15.5355 2.2978C16.4732 3.23548 17 4.50725 17 5.83333V6.66667ZM15.3333 6.66667V5.83333C15.3333 4.94928 14.9821 4.10143 14.357 3.47631C13.7319 2.85119 12.8841 2.5 12 2.5C11.1159 2.5 10.2681 2.85119 9.64298 3.47631C9.01786 4.10143 8.66667 4.94928 8.66667 5.83333V6.66667H15.3333ZM11.1667 11.6667V13.3333H12.8333V11.6667H11.1667ZM7.83333 11.6667V13.3333H9.5V11.6667H7.83333ZM14.5 11.6667V13.3333H16.1667V11.6667H14.5Z" fill="black" fill-opacity="0.58"/>
</g>
<defs>
<filter id="filter0_d_4_8" x="-2" y="0" width="28" height="28" filterUnits="userSpaceOnUse" color-interpolation-filters="sRGB">
<feFlood flood-opacity="0" result="BackgroundImageFix"/>
<feColorMatrix in="SourceAlpha" type="matrix" values="0 0 0 0 0 0 0 0 0 0 0 0 0 0 0 0 0 0 127 0" result="hardAlpha"/>
<feOffset dy="4"/>
<feGaussianBlur stdDeviation="2"/>
<feComposite in2="hardAlpha" operator="out"/>
<feColorMatrix type="matrix" values="0 0 0 0 0 0 0 0 0 0 0 0 0 0 0 0 0 0 0.25 0"/>
<feBlend mode="normal" in2="BackgroundImageFix" result="effect1_dropShadow_4_8"/>
<feBlend mode="normal" in="SourceGraphic" in2="effect1_dropShadow_4_8" result="shape"/>
</filter>
</defs>
</svg>
